<svg style="height: 512px; width: 512px;" xmlns="http://www.w3.org/2000/svg" viewBox="0 0 512 512"><path d="M0 0h512v512H0z" fill="#000000" fill-opacity="1"></path><g class="" style="" transform="translate(-2,-42)"><g><path d="M106.531 32.647C102.113 32.647 98.531 36.229 98.531 40.647C98.531 45.065 102.113 48.647 106.531 48.647C110.949 48.647 114.531 45.065 114.531 40.647C114.531 36.229 110.949 32.647 106.531 32.647Z" class="" fill="#000000" fill-opacity="1"></path><path d="M127 54.11C118.163 54.11 111 61.273 111 70.11C111 78.947 118.163 86.11 127 86.11C135.837 86.11 143 78.947 143 70.11C143 61.273 135.837 54.11 127 54.11Z" class="" fill="#000000" fill-opacity="1"></path><path d="M87 86.11C82.582 86.11 79 89.692 79 94.11C79 98.528 82.582 102.11 87 102.11C91.418 102.11 95 98.528 95 94.11C95 89.692 91.418 86.11 87 86.11Z" class="" fill="#000000" fill-opacity="1"></path><path d="M253.094 128.93L152 176.108L152 195.768L235.275 157.917L242.725 174.303L152 215.542L152 252.596L86 274.596L86 245.542L66.725 254.303L59.275 237.917L86 225.768L86 206.907L24 235.84L24 305.783L98.156 365.109L150 365.109L150 285.109L263.973 285.109L293.033 168.869Z" class="" fill="#fff" fill-opacity="1"></path><path d="M134 130.596L104 140.596L104 249.622L134 239.622Z" class="" fill="#fff" fill-opacity="1"></path><path d="M359 165.11C341.707 165.11 325.203 168.537 310.12 174.735L304.46 197.368C320.559 188.291 339.161 183.11 359 183.11C420.41 183.11 470 232.7 470 294.11C470 327.998 454.896 358.282 431.041 378.624C436.428 381.645 441.583 385.061 446.465 388.844C471.989 365.261 488 331.524 488 294.11C488 222.972 430.138 165.11 359 165.11Z" class="" fill="#fff" fill-opacity="1"></path><path d="M357.957 200.608C339.989 200.798 321.574 206.552 306.621 218.368C387.34 210.408 436.991 262.516 445.332 330.389C462.484 277.645 436.793 235.617 401.787 212.749C389.317 204.602 373.811 200.44 357.957 200.609Z" class="" fill="#fff" fill-opacity="1"></path><path d="M168 303.11L168 365.11L289.707 365.11L264.907 303.11Z" class="selected" fill="#fff" fill-opacity="1"></path><path d="M72.305 383.11C72.885 399.133 74.952 413.367 78.928 425.016L78.992 424.736C186.623 449.263 323.49 456.574 458.01 427.659C456.766 425.54 455.399 423.496 453.916 421.538C439.047 401.874 408.386 383.11 383 383.11Z" class="" fill="#fff" fill-opacity="1"></path><path d="M463.57 444.878C331.557 473.571 197.995 468.053 89.912 445.52C95.874 452.831 103.567 458.145 113.846 461.571C135.786 468.884 188.42 476.997 250.092 478.911C311.763 480.824 383.12 476.801 444.816 461.378C458.735 457.898 462.42 452.885 463.404 446.899C463.508 446.266 463.557 445.586 463.57 444.878Z" class="" fill="#fff" fill-opacity="1"></path></g></g></svg>